<svg xmlns="http://www.w3.org/2000/svg" xmlns:xlink="http://www.w3.org/1999/xlink" width="793" zoomAndPan="magnify" viewBox="0 0 594.95996 842.24997" height="1122" preserveAspectRatio="xMidYMid meet" version="1.0"><defs><clipPath id="7c0aae45d9"><path d="M 169.742188 279.246094 L 425.265625 279.246094 L 425.265625 530 L 169.742188 530 Z M 169.742188 279.246094 " clip-rule="nonzero"/></clipPath></defs><g clip-path="url(#7c0aae45d9)"><path fill="#e2ba14" d="M 342.167969 411.839844 C 342.167969 387.273438 322.183594 367.289062 297.617188 367.289062 C 273.050781 367.289062 253.0625 387.273438 253.0625 411.839844 C 253.0625 436.410156 273.050781 456.394531 297.617188 456.394531 C 322.183594 456.394531 342.167969 436.410156 342.167969 411.839844 M 366.738281 411.839844 C 366.738281 430.304688 359.546875 447.664062 346.492188 460.714844 C 333.4375 473.773438 316.078125 480.964844 297.617188 480.964844 C 279.152344 480.964844 261.796875 473.773438 248.738281 460.714844 C 235.683594 447.664062 228.492188 430.304688 228.492188 411.839844 C 228.492188 393.378906 235.683594 376.019531 248.738281 362.964844 C 261.796875 349.910156 279.152344 342.71875 297.617188 342.71875 C 316.078125 342.71875 333.4375 349.910156 346.492188 362.964844 C 359.546875 376.019531 366.738281 393.378906 366.738281 411.839844 M 297.730469 279.253906 L 292.171875 291.683594 L 278.644531 290.140625 L 286.628906 301.171875 L 278.53125 312.117188 L 292.074219 310.714844 L 297.503906 323.199219 L 303.058594 310.769531 L 316.589844 312.3125 L 308.601562 301.285156 L 316.703125 290.339844 L 303.160156 291.742188 L 297.730469 279.253906 M 343.792969 292.40625 L 338.234375 304.832031 L 324.707031 303.292969 L 332.691406 314.320312 L 324.589844 325.265625 L 338.136719 323.863281 L 343.566406 336.351562 L 349.121094 323.917969 L 362.648438 325.460938 L 354.664062 314.433594 L 362.761719 303.488281 L 349.21875 304.890625 L 343.792969 292.40625 M 255.191406 292.40625 L 249.632812 304.832031 L 236.105469 303.292969 L 244.089844 314.320312 L 235.992188 325.265625 L 249.535156 323.863281 L 254.964844 336.351562 L 260.523438 323.917969 L 274.050781 325.460938 L 266.0625 314.433594 L 274.164062 303.488281 L 260.621094 304.890625 L 255.191406 292.40625 M 297.496094 509.753906 C 294.773438 509.722656 292.574219 511.792969 292.503906 514.449219 C 292.433594 517.207031 294.800781 519.550781 297.585938 519.476562 C 300.230469 519.40625 302.398438 517.175781 302.386719 514.542969 C 302.371094 511.863281 300.246094 509.777344 297.496094 509.753906 M 396.722656 451.6875 C 408.226562 454.417969 418.753906 446.625 425.4375 430.09375 C 407.386719 431.335938 395.363281 440.480469 396.722656 451.6875 M 221.351562 488.285156 C 217.546875 476.246094 204.199219 472.394531 187.710938 476.753906 C 197.839844 490.160156 211.921875 494.796875 221.351562 488.285156 M 366.703125 489.167969 C 376.277344 481.773438 375.761719 467.105469 366.714844 453.472656 C 357.125 467.957031 356.570312 481.425781 366.703125 489.167969 M 198.558594 342.785156 C 189.730469 356.105469 188.476562 370.472656 197.917969 378.519531 C 207.492188 371.699219 208.777344 358.007812 198.558594 342.785156 M 226.785156 362.722656 C 210.382812 366.410156 200.230469 376.515625 201.550781 387.832031 C 213.335938 390.359375 226.664062 377.097656 226.785156 362.722656 M 206.066406 497.371094 C 218.542969 508.308594 233.148438 510.230469 241.503906 502.039062 C 235.09375 491.1875 218.320312 488.980469 206.066406 497.371094 M 384.417969 472.867188 C 392.023438 464.511719 390.246094 450.933594 377.925781 437.832031 C 370.566406 454.53125 373.863281 467.722656 384.417969 472.867188 M 404.640625 405.769531 C 415.097656 399.496094 417.453125 387.15625 411.269531 370.34375 C 398.980469 382.226562 396.1875 397.617188 404.640625 405.769531 M 393.34375 387.597656 C 394.882812 376.164062 384.386719 365.949219 367.765625 362.605469 C 372.070312 380.5625 382.125 390.28125 393.34375 387.597656 M 396.171875 342.71875 C 386.925781 357.1875 386.957031 371.125 396.980469 378.132812 C 406.140625 371.105469 405.710938 352.339844 396.171875 342.71875 M 216.855469 437.996094 C 205.371094 450.347656 202.917969 463.742188 210.558594 473.230469 C 221.800781 466.855469 224.773438 449.632812 216.855469 437.996094 M 211.792969 412.808594 C 198.242188 424.558594 194.855469 437.570312 201.449219 447.199219 C 214.179688 441.640625 216.667969 427.839844 211.792969 412.808594 M 169.792969 430.546875 C 174.992188 445.257812 187.015625 455.507812 198.644531 451.695312 C 197.964844 440.171875 188.929688 431.566406 169.792969 430.546875 M 263.976562 510.460938 C 255.261719 501.691406 241.808594 503.71875 228.667969 515.527344 C 243.402344 522.375 257.808594 521.199219 263.976562 510.460938 M 309.773438 509.445312 C 321.265625 511.582031 331.835938 502.320312 336.828125 486.003906 C 318.703125 488.539062 307.320312 498.519531 309.773438 509.445312 M 174.320312 453.683594 C 181.816406 468.414062 194.207031 475.78125 205.3125 471.253906 C 203.375 458.683594 191.132812 452.125 174.320312 453.683594 M 363.449219 336.351562 C 365.203125 352.84375 373.179688 364.367188 386.039062 363.707031 C 388.785156 352.414062 376.648438 337.71875 363.449219 336.351562 M 389.835938 470.933594 C 399.691406 475.617188 412.558594 469.132812 420.773438 453.378906 C 403.691406 451.992188 391.332031 458.5 389.835938 470.933594 M 354.179688 468.042969 C 339.515625 479.539062 336.394531 491.53125 342.640625 501.863281 C 355 497.710938 358.253906 481.957031 354.179688 468.042969 M 389.082031 496.933594 C 372.933594 489.421875 360.136719 490.804688 353.421875 501.878906 C 362.296875 509.992188 375.707031 508.152344 389.082031 496.933594 M 258.238281 486.527344 C 263.082031 502.402344 273.835938 512.085938 285.484375 509.476562 C 285.816406 496.90625 273.253906 486.429688 258.238281 486.527344 M 407.328125 476.402344 C 390.949219 471.75 378.113281 476.078125 373.515625 488.023438 C 384.050781 494.296875 400.140625 488.695312 407.328125 476.402344 M 240.578125 468.429688 C 236.425781 484.492188 240.707031 497.097656 252.21875 502.289062 C 258.960938 491.261719 253.25 474.953125 240.578125 468.429688 M 341.007812 525.855469 C 328.871094 512.683594 315.636719 510.066406 306.265625 517.792969 C 311.234375 528.789062 325.542969 531.519531 341.007812 525.855469 M 190.71875 405.953125 C 198.445312 396.359375 196.640625 384.351562 183.789062 370.683594 C 178.191406 385.40625 179.054688 400.503906 190.71875 405.953125 M 209.144531 364.125 C 220.089844 364.152344 229.28125 356.480469 231.582031 336.167969 C 215.207031 341.582031 205.710938 353.535156 209.144531 364.125 M 228.128906 453.707031 C 219.121094 468.023438 218.796875 482.257812 228.359375 489.332031 C 238.28125 481.742188 238.109375 468.175781 228.128906 453.707031 M 366.304688 515.117188 C 353.375 503.402344 340.433594 501.554688 330.90625 510.238281 C 337.585938 520.597656 354.539062 522.851562 366.304688 515.117188 M 253.992188 526.320312 C 270.371094 531.839844 282.667969 528.976562 288.847656 518.0625 C 278.597656 510.347656 261.386719 514.539062 253.992188 526.320312 M 422.039062 401.113281 C 405.070312 409 399.257812 420.449219 403.359375 431.835938 C 416.398438 429.832031 422.308594 416.652344 422.039062 401.113281 M 399.84375 419.414062 C 404.359375 409.871094 398.457031 396.777344 381.800781 388.296875 C 381.003906 406.328125 387.492188 417.398438 399.84375 419.414062 M 195.3125 419.632812 C 208.5625 417.382812 213.703125 405.269531 213.082031 388.441406 C 200.363281 395.175781 189.496094 407.390625 195.3125 419.632812 M 393.8125 446.617188 C 400.441406 436.460938 395.835938 423.546875 382.996094 412.390625 C 377.972656 429.703125 382.511719 443.765625 393.8125 446.617188 M 172.90625 401.382812 C 188.710938 408.46875 196.210938 420.394531 191.554688 431.863281 C 179.121094 430.699219 172.628906 417.230469 172.90625 401.382812 " fill-opacity="1" fill-rule="nonzero"/></g><path fill="#efd90c" d="M 359.3125 411.839844 C 359.3125 445.910156 331.6875 473.53125 297.617188 473.53125 C 288.875 473.53125 280.558594 471.714844 273.027344 468.433594 C 251.191406 458.9375 235.921875 437.171875 235.921875 411.839844 C 235.921875 377.769531 263.542969 350.148438 297.617188 350.148438 C 299.230469 350.148438 300.832031 350.210938 302.414062 350.332031 C 334.246094 352.78125 359.3125 379.386719 359.3125 411.839844 " fill-opacity="1" fill-rule="nonzero"/><path fill="#b59510" d="M 338.503906 365.597656 C 338.367188 365.488281 338.226562 365.382812 338.085938 365.277344 C 328.386719 356.835938 316.019531 351.378906 302.414062 350.332031 C 300.832031 350.210938 299.230469 350.148438 297.617188 350.148438 C 294.984375 350.148438 292.394531 350.3125 289.851562 350.632812 C 292.445312 350.300781 295.058594 350.136719 297.671875 350.136719 C 312.207031 350.136719 326.792969 355.242188 338.503906 365.597656 " fill-opacity="1" fill-rule="nonzero"/><path fill="#bfae0a" d="M 281.503906 471.402344 C 272.351562 468.929688 263.632812 464.300781 256.136719 457.484375 C 230.929688 434.558594 229.078125 395.53125 252.007812 370.324219 C 262.285156 359.023438 275.800781 352.417969 289.851562 350.632812 C 292.394531 350.3125 294.984375 350.148438 297.617188 350.148438 C 299.230469 350.148438 300.832031 350.210938 302.414062 350.332031 C 316.019531 351.378906 328.386719 356.835938 338.085938 365.277344 C 327.164062 356.925781 314.140625 352.796875 301.160156 352.796875 C 284.597656 352.796875 268.09375 359.511719 256.070312 372.730469 C 233.433594 397.621094 235.261719 436.148438 260.152344 458.785156 C 266.539062 464.59375 273.820312 468.792969 281.503906 471.402344 " fill-opacity="1" fill-rule="nonzero"/><path fill="#efd90c" d="M 339.710938 395.871094 L 337.601562 395.871094 L 337.601562 383.242188 L 339.710938 383.242188 L 339.710938 388.171875 C 339.863281 387.949219 340.027344 387.742188 340.203125 387.550781 C 340.382812 387.359375 340.589844 387.1875 340.824219 387.035156 C 341.058594 386.886719 341.316406 386.765625 341.601562 386.679688 C 341.882812 386.589844 342.199219 386.546875 342.558594 386.546875 C 343.59375 386.546875 344.394531 386.863281 344.957031 387.5 C 345.519531 388.132812 345.800781 388.988281 345.800781 390.058594 L 345.800781 395.871094 L 343.691406 395.871094 L 343.691406 390.695312 C 343.691406 389.980469 343.523438 389.429688 343.183594 389.046875 C 342.847656 388.660156 342.371094 388.46875 341.75 388.46875 C 341.144531 388.46875 340.65625 388.667969 340.277344 389.0625 C 339.902344 389.460938 339.710938 390.015625 339.710938 390.730469 Z M 333.050781 393.011719 C 333.050781 393.417969 333.148438 393.710938 333.34375 393.890625 C 333.539062 394.070312 333.820312 394.15625 334.175781 394.15625 C 334.628906 394.15625 335.058594 394.054688 335.472656 393.847656 L 335.472656 395.5625 C 335.207031 395.710938 334.925781 395.824219 334.628906 395.90625 C 334.324219 395.988281 333.980469 396.027344 333.589844 396.027344 C 333.207031 396.027344 332.851562 395.980469 332.527344 395.890625 C 332.203125 395.796875 331.921875 395.644531 331.683594 395.4375 C 331.445312 395.230469 331.261719 394.957031 331.132812 394.617188 C 331.003906 394.273438 330.941406 393.847656 330.941406 393.339844 L 330.941406 388.519531 L 329.78125 388.519531 L 329.78125 386.738281 L 330.941406 386.738281 L 330.941406 384.230469 L 333.050781 384.230469 L 333.050781 386.738281 L 335.507812 386.738281 L 335.507812 388.519531 L 333.050781 388.519531 Z M 313.078125 417.695312 L 313.078125 402.90625 L 301.585938 417.695312 Z M 313.078125 428.289062 L 289.753906 428.289062 L 287.550781 418.210938 L 312.527344 386.429688 L 326.015625 386.429688 L 326.015625 417.625 L 332.136719 417.625 L 332.136719 428.289062 L 326.015625 428.289062 L 326.015625 438.296875 L 313.078125 438.296875 Z M 268.835938 399.742188 L 260.714844 401.730469 L 258.171875 390.695312 L 272.277344 386.429688 L 281.976562 386.429688 L 281.976562 438.296875 L 268.835938 438.296875 L 268.835938 399.742188 " fill-opacity="1" fill-rule="nonzero"/></svg>